# xmcd
# 
# Track frame offsets:
#     150
#     16615
#     41602
#     65175
# 
# Disc length: 1199
# 
# Revision: 2
# Processed by: cddbd v1.5.2PL0 Copyright (c) Steve Scherf et al.
# Submitted via: fre:ac v1.0.31
# 
DISCID=2c04ad04
DTITLE=Mc Duley - - Countryboy
DYEAR=0
DGENRE=Country
TTITLE0=Mc Duley - Countryboy (Radio Mix)
TTITLE1=Mc Duley - Countryboy (Club Mix)
TTITLE2=Mc Duley - Countryboy (Fast Floor Mix)
TTITLE3=Mc Duley - Orientalis (Trip 1)
EXTD=ID3G: 2
EXTT0=
EXTT1=
EXTT2=
EXTT3=
PLAYORDER=
